<?xml version="1.0" encoding="UTF-8"?>
<svg version="1.1" xmlns="http://www.w3.org/2000/svg" width="64" height="81">
<path d="M0 0 C3.45308687 1.51270549 5.95624379 3.54720642 8.75 6.0625 C9.54921875 6.77535156 10.3484375 7.48820313 11.171875 8.22265625 C11.77515625 8.80917969 12.3784375 9.39570313 13 10 C13 10.33 13 10.66 13 11 C10.69 11 8.38 11 6 11 C6.00222061 11.6241832 6.00444122 12.24836639 6.00672913 12.89146423 C6.0287808 19.36342804 6.0439061 25.83538125 6.05493164 32.30737305 C6.05997349 34.72567172 6.06680678 37.14396733 6.07543945 39.56225586 C6.08751157 43.02979283 6.09322963 46.49728966 6.09765625 49.96484375 C6.10281754 51.05337143 6.10797882 52.14189911 6.11329651 53.26341248 C6.11337204 54.26437454 6.11344757 55.26533661 6.11352539 56.29663086 C6.115746 57.18265488 6.11796661 58.06867889 6.12025452 58.98155212 C6 61 6 61 5 62 C5.185625 62.804375 5.37125 63.60875 5.5625 64.4375 C5.706875 65.283125 5.85125 66.12875 6 67 C3.30110992 69.69889008 1.77157544 69.36189059 -2 69.4375 C-10.56307614 69.2862757 -16.58134622 66.47029125 -22.875 60.75 C-28.08967567 55.08027009 -31.15723926 47.74760729 -31 40 C-30.39565397 35.12154409 -29.74959254 31.12438882 -27 27 C-26.97421875 27.68964844 -26.9484375 28.37929688 -26.921875 29.08984375 C-26.51318637 35.86107132 -25.2428082 41.04904014 -22 47 C-21.4225 48.093125 -20.845 49.18625 -20.25 50.3125 C-17.56555467 53.88176618 -17.56555467 53.88176618 -10 57 C-10 49.08 -10 41.16 -10 33 C-10.99 33 -11.98 33 -13 33 C-13 29.7 -13 26.4 -13 23 C-9.04 22.505 -9.04 22.505 -5 22 C-5 18.7 -5 15.4 -5 12 C-7.31 12 -9.62 12 -12 12 C-8.32167983 7.47384007 -4.58913637 3.60575001 0 0 Z M-6 59 C-2 60 -2 60 -2 60 Z " fill="#3FB4F5" transform="translate(42,4)"/>
<path d="M0 0 C0.33 0 0.66 0 1 0 C1.02578125 0.68964844 1.0515625 1.37929688 1.078125 2.08984375 C1.48768201 8.87545882 2.78004287 14.02844314 6 20 C6.7425 21.5778125 6.7425 21.5778125 7.5 23.1875 C13.20510276 29.6057406 21.69774475 32.44435365 30.0390625 33.578125 C32 34 32 34 34 36 C33.44444444 40.55555556 33.44444444 40.55555556 32 42 C22.03677858 43.05192383 14.88449204 41.56048133 6.96875 35.42578125 C1.06375145 30.05873808 -2.34338613 23.0794024 -3.046875 15.1171875 C-2.93212404 9.93426901 -1.63164976 4.89494929 0 0 Z " fill="#040608" transform="translate(14,31)"/>
<path d="M0 0 C1.670625 0.061875 1.670625 0.061875 3.375 0.125 C3.375 1.775 3.375 3.425 3.375 5.125 C4.035 5.455 4.695 5.785 5.375 6.125 C4.715 6.125 4.055 6.125 3.375 6.125 C3.375 15.035 3.375 23.945 3.375 33.125 C1.375 34.125 1.375 34.125 -3.625 33.125 C-3.625 25.205 -3.625 17.285 -3.625 9.125 C-4.285 9.125 -4.945 9.125 -5.625 9.125 C-5.75 5.75 -5.75 5.75 -5.625 2.125 C-3.625 0.125 -3.625 0.125 0 0 Z " fill="#3BB4F8" transform="translate(35.625,27.875)"/>
<path d="M0 0 C3.3 0 6.6 0 10 0 C10 7.26 10 14.52 10 22 C2.24449878 18.12224939 2.24449878 18.12224939 0 14 C-0.51382627 9.29167357 -0.34891161 4.71676806 0 0 Z " fill="#41AEEB" transform="translate(21,38)"/>
<path d="M0 0 C0.66 0 1.32 0 2 0 C2 9.57 2 19.14 2 29 C3.98 29 5.96 29 8 29 C8.33 28.34 8.66 27.68 9 27 C8.67 28.32 8.34 29.64 8 31 C6.04020573 30.71831703 4.08217622 30.42433283 2.125 30.125 C0.48917969 29.88136719 0.48917969 29.88136719 -1.1796875 29.6328125 C-4 29 -4 29 -6 27 C-4.35 27 -2.7 27 -1 27 C-0.67 18.09 -0.34 9.18 0 0 Z " fill="#2692CE" transform="translate(39,34)"/>
<path d="M0 0 C1.32 0.66 2.64 1.32 4 2 C3.34 3.32 2.68 4.64 2 6 C-0.31 6 -2.62 6 -5 6 C-3.35 4.02 -1.7 2.04 0 0 Z " fill="#46A9E2" transform="translate(35,10)"/>
<path d="M0 0 C3.3 0 6.6 0 10 0 C7.08235 1.9451 5.37462715 2.45276317 2 3 C1.67 5.31 1.34 7.62 1 10 C0.67 10 0.34 10 0 10 C0 6.7 0 3.4 0 0 Z " fill="#5CB2E0" transform="translate(29,27)"/>
<path d="M0 0 C1.32 0.66 2.64 1.32 4 2 C1 3 1 3 -1 3 C-1.33 3.99 -1.66 4.98 -2 6 C-3.32 5.67 -4.64 5.34 -6 5 C-4.02 3.35 -2.04 1.7 0 0 Z " fill="#55AEE1" transform="translate(42,4)"/>
</svg>
