<svg viewBox="0 0 262 42" xmlns="http://www.w3.org/2000/svg" data-logo="logo">
        <g transform="translate(0, 1) rotate(0)" id="logogram" style="opacity: 1;"><path fill="#007BFF" d="M63 29.3506L38.117 5.08907C37.4008 4.39081 36.4402 4 35.44 4C31.9983 4 30.2991 8.18294 32.7659 10.583L59.4712 36.5666C60.7577 37.8183 59.8715 40 58.0765 40H9.65685C8.59599 40 7.57857 39.5786 6.82843 38.8284L1.17157 33.1716C0.421426 32.4214 0 31.404 0 30.3431V10.6484L24.883 34.9109C25.5992 35.6092 26.5598 36 27.5601 36C31.0017 36 32.7009 31.8171 30.2342 29.417L3.52882 3.43345C2.24227 2.18166 3.12849 0 4.92354 0L53.3431 0C54.404 0 55.4214 0.421427 56.1716 1.17157L61.8284 6.82843C62.5786 7.57857 63 8.59599 63 9.65685V29.3506Z"></path></g>
        <g transform="translate(69, 2.5)" id="logotype" style="opacity: 1;"><path d="M18.98 31L7.58 31L7.58 6.15L18.84 6.15L18.84 9.51L11.57 9.51L11.57 16.68L18.04 16.68L18.04 19.87L11.57 19.87L11.57 27.64L18.98 27.64L18.98 31ZM23.99 31L20.00 31L24.03 22.00L20.07 13.18L24.31 13.18L26.55 18.96L28.75 13.18L32.74 13.18L28.79 22.00L32.81 31L28.58 31L26.30 25.05L23.99 31ZM38.23 36.77L34.32 36.77L34.32 13.18L38.17 13.18L38.17 15.21Q39.25 12.76 41.70 12.76L41.70 12.76Q43.10 12.76 44.26 13.66Q45.41 14.55 46.11 16.60Q46.81 18.64 46.81 22.11L46.81 22.11Q46.81 25.54 46.11 27.59Q45.41 29.63 44.24 30.53Q43.07 31.42 41.63 31.42L41.63 31.42Q40.55 31.42 39.69 30.95Q38.83 30.48 38.23 29.46L38.23 29.46L38.23 36.77ZM38.23 19.38L38.23 24.59Q38.23 26.77 38.90 27.57Q39.57 28.38 40.55 28.38L40.55 28.38Q41.67 28.38 42.24 27.38Q42.82 26.38 42.82 24.14L42.82 24.14L42.82 20.04Q42.82 17.80 42.24 16.79Q41.67 15.77 40.55 15.77L40.55 15.77Q39.57 15.77 38.90 16.54Q38.23 17.31 38.23 19.38L38.23 19.38ZM54.93 31.42L54.93 31.42Q53.11 31.42 51.69 30.53Q50.28 29.63 49.49 27.59Q48.70 25.54 48.70 22.11L48.70 22.11Q48.70 18.68 49.51 16.63Q50.31 14.58 51.71 13.67Q53.11 12.76 54.93 12.76L54.93 12.76Q56.93 12.76 58.12 13.67Q59.31 14.58 59.88 16.07Q60.46 17.56 60.57 19.29Q60.67 21.02 60.53 22.67L60.53 22.67L52.62 22.67L52.62 23.93Q52.62 26.48 53.23 27.46Q53.85 28.45 55 28.45L55 28.45Q56.09 28.45 56.52 27.57Q56.96 26.70 57.17 24.63L57.17 24.63L60.64 24.91Q60.43 28.41 58.85 29.91Q57.28 31.42 54.93 31.42ZM52.62 20.08L52.62 20.08L52.62 20.18L57.14 20.18L57.14 19.98Q57.14 17.49 56.61 16.58Q56.09 15.67 55 15.67L55 15.67Q53.88 15.67 53.25 16.63Q52.62 17.59 52.62 20.08ZM66.94 31L63.02 31L63.02 13.18L66.90 13.18L66.90 15.32Q67.53 13.99 68.56 13.38Q69.59 12.76 70.75 12.76L70.75 12.76Q72.61 12.76 73.69 14.02Q74.78 15.28 74.78 17.84L74.78 17.84L74.78 31L70.86 31L70.86 18.50Q70.86 17.07 70.38 16.47Q69.91 15.88 69.04 15.88L69.04 15.88Q68.20 15.88 67.57 16.46Q66.94 17.03 66.94 18.57L66.94 18.57L66.94 31ZM82.62 31.42L82.62 31.42Q79.54 31.42 78.15 29.67Q76.77 27.92 76.81 25.23L76.81 25.23L80.13 25.12Q80.17 28.52 82.62 28.52L82.62 28.52Q83.63 28.52 84.16 27.97Q84.68 27.43 84.68 26.55L84.68 26.55Q84.68 25.61 84.09 25.03Q83.49 24.45 82.48 23.89L82.48 23.89L80.87 23.02Q79.01 22.00 78.10 20.71Q77.19 19.41 77.19 17.66L77.19 17.66Q77.19 15.39 78.70 14.08Q80.20 12.76 82.55 12.76L82.55 12.76Q85.42 12.76 86.73 14.34Q88.04 15.91 87.97 18.64L87.97 18.64L84.65 18.71Q84.61 17.07 84.07 16.37Q83.53 15.67 82.58 15.67L82.58 15.67Q81.60 15.67 81.13 16.16Q80.66 16.65 80.66 17.38L80.66 17.38Q80.66 18.23 81.13 18.77Q81.60 19.31 82.62 19.91L82.62 19.91L84.68 21.09Q86.40 22.07 87.31 23.20Q88.22 24.31 88.22 26.24L88.22 26.24Q88.22 28.59 86.76 30.00Q85.31 31.42 82.62 31.42ZM96.16 31.42L96.16 31.42Q94.34 31.42 92.92 30.53Q91.51 29.63 90.72 27.59Q89.93 25.54 89.93 22.11L89.93 22.11Q89.93 18.68 90.74 16.63Q91.54 14.58 92.94 13.67Q94.34 12.76 96.16 12.76L96.16 12.76Q98.16 12.76 99.35 13.67Q100.54 14.58 101.11 16.07Q101.69 17.56 101.80 19.29Q101.90 21.02 101.76 22.67L101.76 22.67L93.85 22.67L93.85 23.93Q93.85 26.48 94.46 27.46Q95.08 28.45 96.23 28.45L96.23 28.45Q97.32 28.45 97.75 27.57Q98.19 26.70 98.40 24.63L98.40 24.63L101.87 24.91Q101.66 28.41 100.08 29.91Q98.51 31.42 96.16 31.42ZM93.85 20.08L93.85 20.08L93.85 20.18L98.37 20.18L98.37 19.98Q98.37 17.49 97.84 16.58Q97.32 15.67 96.23 15.67L96.23 15.67Q95.11 15.67 94.48 16.63Q93.85 17.59 93.85 20.08ZM116.04 31L112.05 31L112.05 9.51L107.64 9.51L107.64 6.15L120.45 6.15L120.45 9.51L116.04 9.51L116.04 31ZM124.13 31L120.21 31L120.21 13.18L124.09 13.18L124.09 15.56Q124.65 14.09 125.54 13.46Q126.44 12.83 127.42 12.83L127.42 12.83Q127.66 12.83 127.94 12.87Q128.22 12.90 128.54 13.01L128.54 13.01L128.54 16.51Q127.31 16.37 126.31 16.53Q125.32 16.68 124.72 17.40Q124.13 18.12 124.13 19.70L124.13 19.70L124.13 31ZM133.33 31.28L133.33 31.28Q131.30 31.28 130.16 30.00Q129.03 28.73 129.03 26.41L129.03 26.41Q129.03 24.11 130.23 22.81Q131.44 21.52 133.61 20.74L133.61 20.74L136.83 19.55L136.83 18.12Q136.83 16.79 136.32 16.30Q135.82 15.81 134.98 15.81L134.98 15.81Q134.07 15.81 133.52 16.44Q132.98 17.07 132.81 18.75L132.81 18.75L129.20 18.29Q129.48 15.60 130.97 14.18Q132.46 12.76 135.15 12.76L135.15 12.76Q140.75 12.76 140.75 18.57L140.75 18.57L140.75 26.45Q140.75 27.32 140.77 28.23Q140.79 29.14 140.89 31L140.89 31L137.25 31L137.04 29.07Q136.48 30.20 135.52 30.74Q134.56 31.28 133.33 31.28ZM132.88 26.10L132.88 26.10Q132.88 27.43 133.35 27.95Q133.82 28.48 134.70 28.48L134.70 28.48Q135.68 28.48 136.25 27.83Q136.83 27.18 136.83 26.17L136.83 26.17L136.83 22.21L135.08 22.95Q134.07 23.41 133.47 24.07Q132.88 24.73 132.88 26.10ZM149.29 31.42L149.29 31.42Q147.47 31.42 146.07 30.51Q144.67 29.60 143.87 27.55Q143.06 25.50 143.06 22.11L143.06 22.11Q143.06 18.68 143.87 16.63Q144.67 14.58 146.07 13.67Q147.47 12.76 149.29 12.76L149.29 12.76Q150.87 12.76 152.11 13.43Q153.35 14.09 154.12 15.69Q154.89 17.28 154.96 20.04L154.96 20.04L151.53 20.25Q151.39 17.84 150.94 16.82Q150.48 15.81 149.36 15.81L149.36 15.81Q148.21 15.81 147.63 16.81Q147.05 17.80 147.05 20.29L147.05 20.29L147.05 23.89Q147.05 26.34 147.63 27.34Q148.21 28.34 149.36 28.34L149.36 28.34Q150.52 28.34 150.95 27.32Q151.39 26.31 151.53 23.89L151.53 23.89L155.00 24.11Q154.93 26.87 154.16 28.46Q153.39 30.05 152.13 30.74Q150.87 31.42 149.29 31.42ZM161.16 31L157.24 31L157.24 6.15L161.16 6.15L161.16 20.46L165.32 13.18L169.10 13.18L165.18 19.94L169.24 31L165.25 31L162.45 23.13L161.16 25.40L161.16 31ZM175.93 31.42L175.93 31.42Q174.11 31.42 172.69 30.53Q171.27 29.63 170.48 27.59Q169.70 25.54 169.70 22.11L169.70 22.11Q169.70 18.68 170.50 16.63Q171.31 14.58 172.71 13.67Q174.11 12.76 175.93 12.76L175.93 12.76Q177.92 12.76 179.11 13.67Q180.30 14.58 180.88 16.07Q181.46 17.56 181.56 19.29Q181.67 21.02 181.53 22.67L181.53 22.67L173.62 22.67L173.62 23.93Q173.62 26.48 174.23 27.46Q174.84 28.45 176.00 28.45L176.00 28.45Q177.08 28.45 177.52 27.57Q177.96 26.70 178.17 24.63L178.17 24.63L181.63 24.91Q181.42 28.41 179.85 29.91Q178.27 31.42 175.93 31.42ZM173.62 20.08L173.62 20.08L173.62 20.18L178.13 20.18L178.13 19.98Q178.13 17.49 177.61 16.58Q177.08 15.67 176.00 15.67L176.00 15.67Q174.88 15.67 174.25 16.63Q173.62 17.59 173.62 20.08ZM187.93 31L184.01 31L184.01 13.18L187.90 13.18L187.90 15.56Q188.46 14.09 189.35 13.46Q190.24 12.83 191.22 12.83L191.22 12.83Q191.47 12.83 191.75 12.87Q192.03 12.90 192.34 13.01L192.34 13.01L192.34 16.51Q191.12 16.37 190.12 16.53Q189.12 16.68 188.53 17.40Q187.93 18.12 187.93 19.70L187.93 19.70L187.93 31Z" fill="#ffffff"></path></g>
        
      </svg>