
      <svg data-logo="logo" xmlns="http://www.w3.org/2000/svg" viewBox="0 0 347 42">
        <g id="logogram" transform="translate(0, 1) rotate(0) "><path d="M63 29.3506L38.117 5.08907C37.4008 4.39081 36.4402 4 35.44 4C31.9983 4 30.2991 8.18294 32.7659 10.583L59.4712 36.5666C60.7577 37.8183 59.8715 40 58.0765 40H9.65685C8.59599 40 7.57857 39.5786 6.82843 38.8284L1.17157 33.1716C0.421426 32.4214 0 31.404 0 30.3431V10.6484L24.883 34.9109C25.5992 35.6092 26.5598 36 27.5601 36C31.0017 36 32.7009 31.8171 30.2342 29.417L3.52882 3.43345C2.24227 2.18166 3.12849 0 4.92354 0L53.3431 0C54.404 0 55.4214 0.421427 56.1716 1.17157L61.8284 6.82843C62.5786 7.57857 63 8.59599 63 9.65685V29.3506Z" fill="#007BFF"/></g>
        <g id="logotype" transform="translate(69, 1)"><path fill="#111111" d="M13.63 33L11.21 33Q10.16 33 9.48 32.34Q8.80 31.67 8.80 30.62L8.80 30.62L8.80 10.91Q8.80 9.86 9.48 9.18Q10.16 8.50 11.21 8.50L11.21 8.50L13.63 8.50L13.63 33ZM22.42 12.84L12.02 12.84L12.02 8.50L22.42 8.50Q23.36 8.50 23.97 9.09Q24.59 9.69 24.59 10.67L24.59 10.67Q24.59 11.61 23.97 12.23Q23.36 12.84 22.42 12.84L22.42 12.84ZM21.09 22.67L12.05 22.67L12.05 18.34L21.09 18.34Q22.03 18.34 22.64 18.95Q23.26 19.56 23.26 20.50L23.26 20.50Q23.26 21.45 22.64 22.06Q22.03 22.67 21.09 22.67L21.09 22.67ZM22.84 33L12.41 33L12.41 28.55L22.84 28.55Q23.78 28.55 24.39 29.17Q25.01 29.78 25.01 30.76L25.01 30.76Q25.01 31.74 24.39 32.37Q23.78 33 22.84 33L22.84 33ZM40.86 33.35L40.86 33.35Q39.70 33.35 39.01 32.44L39.01 32.44L28.40 18.37Q27.91 17.74 27.91 16.93L27.91 16.93Q27.91 15.99 28.58 15.31Q29.24 14.63 30.19 14.63L30.19 14.63Q31.34 14.63 32.04 15.53L32.04 15.53L42.68 29.61Q43.14 30.20 43.14 31.04L43.14 31.04Q43.14 31.98 42.49 32.67Q41.84 33.35 40.86 33.35ZM36.98 26L34.07 22.25L39.01 15.53Q39.67 14.63 40.86 14.63L40.86 14.63Q41.80 14.63 42.47 15.31Q43.14 15.99 43.14 16.93L43.14 16.93Q43.14 17.35 43.01 17.70Q42.89 18.05 42.68 18.34L42.68 18.34L36.98 26ZM29.77 33.35L29.77 33.35Q28.82 33.35 28.16 32.67Q27.49 31.98 27.49 31.04L27.49 31.04Q27.49 30.62 27.61 30.27Q27.73 29.92 27.95 29.64L27.95 29.64L33.51 22.25L36.42 26L31.62 32.41Q30.96 33.35 29.77 33.35ZM56.44 33.52L56.44 33.52Q55.07 33.52 54.00 33.12Q52.94 32.72 52.15 32.00Q51.36 31.29 50.84 30.30L50.84 30.30L51.43 29.95L51.43 38.01Q51.43 39.02 50.77 39.69Q50.10 40.35 49.09 40.35L49.09 40.35Q48.11 40.35 47.44 39.69Q46.78 39.02 46.78 38.01L46.78 38.01L46.78 17.00Q46.78 15.99 47.44 15.31Q48.11 14.63 49.09 14.63L49.09 14.63Q50.10 14.63 50.78 15.32Q51.47 16.02 51.43 17.35L51.43 17.35L51.40 18.54L50.73 18.30Q51.33 16.79 52.76 15.62Q54.20 14.45 56.37 14.45L56.37 14.45Q58.29 14.45 59.76 15.25Q61.23 16.06 62.21 17.42Q63.19 18.79 63.70 20.50Q64.21 22.22 64.21 24.04L64.21 24.04Q64.21 25.89 63.70 27.59Q63.19 29.29 62.19 30.64Q61.20 31.98 59.76 32.76Q58.33 33.52 56.44 33.52ZM55.28 29.32L55.28 29.32Q57.21 29.32 58.31 27.89Q59.41 26.45 59.41 23.90L59.41 23.90Q59.41 22.25 58.94 21.08Q58.47 19.91 57.54 19.26Q56.61 18.61 55.25 18.61L55.25 18.61Q53.36 18.61 52.31 19.95Q51.26 21.27 51.26 23.86L51.26 23.86Q51.26 26.45 52.32 27.89Q53.39 29.32 55.28 29.32ZM75.76 33.52L75.76 33.52Q73.23 33.52 71.26 32.35Q69.28 31.18 68.14 29.06Q67.01 26.95 67.01 24.07L67.01 24.07Q67.01 21.38 68.04 19.19Q69.07 17.00 70.98 15.73Q72.89 14.45 75.51 14.45L75.51 14.45Q77.47 14.45 79.03 15.18Q80.59 15.92 81.67 17.11Q82.76 18.30 83.31 19.70Q83.88 21.10 83.88 22.46L83.88 22.46Q83.88 23.80 83.23 24.56Q82.58 25.34 81.11 25.34L81.11 25.34L71.84 25.34Q72.08 26.73 72.71 27.63Q73.34 28.52 74.23 28.94Q75.13 29.36 76.21 29.36L76.21 29.36Q77.37 29.36 78.06 28.91Q78.77 28.45 79.33 27.82L79.33 27.82Q79.68 27.47 80.11 27.17Q80.55 26.88 81.25 26.88L81.25 26.88Q82.16 26.88 82.76 27.45Q83.35 28.03 83.35 29.04L83.35 29.04Q83.35 29.88 82.77 30.67Q82.20 31.46 81.16 32.11Q80.13 32.76 78.77 33.14Q77.40 33.52 75.76 33.52ZM71.84 22.11L71.84 22.11L79.22 22.11Q78.98 20.36 78.01 19.47Q77.05 18.58 75.55 18.58L75.55 18.58Q74.08 18.58 73.09 19.44Q72.12 20.29 71.84 22.11ZM90.04 33.35L90.04 33.35Q89.06 33.35 88.39 32.69Q87.73 32.02 87.73 31.00L87.73 31.00L87.73 16.93Q87.73 15.95 88.39 15.29Q89.06 14.63 90.04 14.63L90.04 14.63Q91.02 14.63 91.70 15.31Q92.38 15.99 92.38 16.93L92.38 16.93L92.38 19.07L91.44 18.65Q92.56 16.51 94.06 15.48Q95.57 14.45 97.63 14.45L97.63 14.45Q99.52 14.45 101.01 15.27Q102.50 16.09 103.34 17.70Q104.18 19.31 104.18 21.63L104.18 21.63L104.18 31.00Q104.18 32.02 103.51 32.69Q102.84 33.35 101.87 33.35L101.87 33.35Q100.85 33.35 100.19 32.69Q99.52 32.02 99.52 31.00L99.52 31.00L99.52 22.43Q99.52 20.78 98.65 19.79Q97.77 18.79 96.16 18.79L96.16 18.79Q94.97 18.79 94.13 19.30Q93.29 19.80 92.84 20.68Q92.38 21.55 92.38 22.60L92.38 22.60L92.38 31.00Q92.38 32.02 91.72 32.69Q91.05 33.35 90.04 33.35ZM115.48 33.63L115.48 33.63Q113.14 33.63 111.42 32.90Q109.70 32.16 108.80 31.07Q107.89 29.99 107.85 29.01L107.85 29.01Q107.85 28.24 108.41 27.56Q108.97 26.88 110.06 26.88L110.06 26.88Q110.86 26.88 111.35 27.19Q111.84 27.50 112.05 27.79L112.05 27.79Q112.92 28.77 113.84 29.24Q114.75 29.71 115.83 29.71L115.83 29.71Q116.98 29.71 117.51 29.25Q118.03 28.80 118.03 28.13L118.03 28.13Q118.03 27.57 117.62 27.17Q117.20 26.77 116.43 26.44Q115.66 26.11 114.53 25.75L114.53 25.75Q113.38 25.37 112.28 24.93Q111.17 24.49 110.32 23.85Q109.46 23.20 108.97 22.27Q108.48 21.34 108.48 20.02L108.48 20.02Q108.48 18.41 109.34 17.13Q110.20 15.85 111.73 15.11Q113.28 14.38 115.27 14.38L115.27 14.38Q117.23 14.38 118.68 15.03Q120.14 15.67 120.98 16.67Q121.81 17.67 121.81 18.79L121.81 18.79Q121.81 19.63 121.36 20.19Q120.91 20.75 119.96 20.75L119.96 20.75Q119.16 20.75 118.61 20.40Q118.07 20.05 117.76 19.70L117.76 19.70Q117.51 19.38 117.18 19.07Q116.84 18.75 116.37 18.53Q115.90 18.30 115.13 18.30L115.13 18.30Q114.08 18.30 113.59 18.72Q113.10 19.14 113.10 19.73L113.10 19.73Q113.10 20.36 113.57 20.75Q114.05 21.13 115.01 21.47Q115.97 21.80 117.44 22.32L117.44 22.32Q118.67 22.74 119.63 23.25Q120.59 23.76 121.27 24.39Q121.95 25.02 122.32 25.82Q122.69 26.63 122.69 27.71L122.69 27.71Q122.69 29.39 121.83 30.74Q120.98 32.09 119.37 32.86Q117.76 33.63 115.48 33.63ZM134.24 33.52L134.24 33.52Q131.72 33.52 129.74 32.35Q127.77 31.18 126.63 29.06Q125.49 26.95 125.49 24.07L125.49 24.07Q125.49 21.38 126.52 19.19Q127.56 17.00 129.46 15.73Q131.37 14.45 134.00 14.45L134.00 14.45Q135.96 14.45 137.51 15.18Q139.07 15.92 140.16 17.11Q141.24 18.30 141.80 19.70Q142.36 21.10 142.36 22.46L142.36 22.46Q142.36 23.80 141.71 24.56Q141.06 25.34 139.59 25.34L139.59 25.34L130.32 25.34Q130.56 26.73 131.19 27.63Q131.83 28.52 132.72 28.94Q133.61 29.36 134.69 29.36L134.69 29.36Q135.85 29.36 136.55 28.91Q137.25 28.45 137.81 27.82L137.81 27.82Q138.16 27.47 138.60 27.17Q139.03 26.88 139.74 26.88L139.74 26.88Q140.65 26.88 141.24 27.45Q141.84 28.03 141.84 29.04L141.84 29.04Q141.84 29.88 141.26 30.67Q140.68 31.46 139.65 32.11Q138.62 32.76 137.25 33.14Q135.88 33.52 134.24 33.52ZM130.32 22.11L130.32 22.11L137.71 22.11Q137.46 20.36 136.50 19.47Q135.53 18.58 134.03 18.58L134.03 18.58Q132.56 18.58 131.58 19.44Q130.60 20.29 130.32 22.11ZM171.20 13.12L156.22 13.12Q155.24 13.12 154.57 12.45Q153.91 11.79 153.91 10.81L153.91 10.81Q153.91 9.79 154.57 9.15Q155.24 8.50 156.22 8.50L156.22 8.50L171.20 8.50Q172.22 8.50 172.86 9.15Q173.51 9.79 173.51 10.81L173.51 10.81Q173.51 11.79 172.86 12.45Q172.22 13.12 171.20 13.12L171.20 13.12ZM163.71 33.35L163.71 33.35Q162.66 33.35 162.00 32.67Q161.33 31.98 161.33 30.93L161.33 30.93L161.33 10.88L166.13 10.88L166.13 30.93Q166.13 31.98 165.44 32.67Q164.76 33.35 163.71 33.35ZM177.43 33.35L177.43 33.35Q176.48 33.35 175.80 32.67Q175.12 31.98 175.12 31.00L175.12 31.00L175.12 16.93Q175.12 15.99 175.82 15.31Q176.52 14.63 177.53 14.63L177.53 14.63Q178.58 14.63 179.18 15.32Q179.77 16.02 179.77 16.97L179.77 16.97L179.77 18.58L179.11 18.20Q179.49 17.35 180.13 16.48Q180.75 15.60 181.66 15.03Q182.57 14.45 183.66 14.45L183.66 14.45Q184.78 14.45 185.46 15.06Q186.14 15.67 186.14 16.76L186.14 16.76Q186.14 17.70 185.43 18.39Q184.71 19.07 183.59 19.07L183.59 19.07Q182.26 19.07 181.42 19.56Q180.58 20.05 180.18 20.91Q179.77 21.77 179.77 22.92L179.77 22.92L179.77 31.00Q179.77 31.98 179.09 32.67Q178.41 33.35 177.43 33.35ZM193.42 33.52L193.42 33.52Q191.81 33.52 190.40 32.90Q188.98 32.27 188.09 31.06Q187.19 29.85 187.19 28.06L187.19 28.06Q187.19 25.51 188.86 24.06Q190.52 22.60 194.23 22.04L194.23 22.04Q195.42 21.87 196.36 21.71Q197.31 21.55 197.89 21.22Q198.46 20.89 198.46 20.16L198.46 20.16Q198.46 19.63 198.17 19.21Q197.87 18.79 197.31 18.56Q196.75 18.34 195.91 18.34L195.91 18.34Q194.82 18.34 194.13 18.75Q193.42 19.17 192.97 19.73L192.97 19.73Q192.51 20.23 191.95 20.52Q191.39 20.82 190.66 20.82L190.66 20.82Q189.68 20.82 189.10 20.31Q188.52 19.80 188.52 18.93L188.52 18.93Q188.52 18.05 189.08 17.27Q189.64 16.48 190.64 15.85Q191.64 15.22 192.97 14.85Q194.30 14.48 195.84 14.48L195.84 14.48Q198.22 14.48 199.83 15.34Q201.44 16.20 202.26 17.74Q203.08 19.28 203.08 21.27L203.08 21.27L203.08 28.20Q203.08 28.66 203.19 28.82Q203.29 28.98 203.61 29.08L203.61 29.08Q204.17 29.29 204.66 29.78Q205.15 30.27 205.15 31.11L205.15 31.11Q205.15 32.05 204.47 32.72Q203.78 33.38 202.49 33.35L202.49 33.35Q201.05 33.31 200.27 32.63Q199.48 31.95 199.27 30.83L199.27 30.83L199.23 30.59L199.13 30.59Q198.19 32.02 196.89 32.77Q195.59 33.52 193.42 33.52ZM194.44 29.57L194.44 29.57Q195.56 29.57 196.47 29.11Q197.38 28.66 197.92 27.82Q198.46 26.98 198.46 25.82L198.46 25.82L198.46 24.60Q198.46 24.49 198.41 24.49Q198.36 24.49 198.25 24.56L198.25 24.56Q197.83 24.84 197.24 24.98Q196.64 25.13 196.00 25.21Q195.35 25.30 194.69 25.48L194.69 25.48Q193.07 25.79 192.46 26.31Q191.85 26.84 191.85 27.64L191.85 27.64Q191.85 28.52 192.50 29.04Q193.14 29.57 194.44 29.57ZM215.96 33.52L215.96 33.52Q213.41 33.52 211.47 32.27Q209.52 31.00 208.42 28.84Q207.32 26.66 207.32 23.97L207.32 23.97Q207.32 21.27 208.41 19.12Q209.49 16.97 211.47 15.71Q213.44 14.45 216.07 14.45L216.07 14.45Q217.89 14.45 219.27 15.03Q220.66 15.60 221.46 16.55Q222.26 17.49 222.26 18.58L222.26 18.58Q222.30 19.56 221.67 20.09Q221.04 20.61 220.13 20.61L220.13 20.61Q219.57 20.61 219.17 20.42Q218.76 20.23 218.48 19.95L218.48 19.95Q218.17 19.52 217.61 19.09Q217.05 18.65 215.96 18.65L215.96 18.65Q214.77 18.65 213.90 19.28Q213.02 19.91 212.57 21.10Q212.11 22.29 212.11 23.97L212.11 23.97Q212.11 26.52 213.16 27.89Q214.21 29.25 216.10 29.25L216.10 29.25Q217.44 29.25 218.10 28.64Q218.76 28.03 219.19 27.33L219.19 27.33Q219.53 26.73 219.92 26.31Q220.30 25.89 221.04 25.89L221.04 25.89Q221.98 25.89 222.61 26.58Q223.25 27.26 223.25 28.27L223.25 28.27Q223.21 29.11 222.69 30.04Q222.16 30.97 221.20 31.76Q220.23 32.55 218.91 33.03Q217.57 33.52 215.96 33.52ZM229.23 33.35L229.23 33.35Q228.28 33.35 227.60 32.67Q226.92 31.98 226.92 31.00L226.92 31.00L226.92 9.76Q226.92 8.81 227.60 8.13Q228.28 7.45 229.23 7.45L229.23 7.45Q230.21 7.45 230.89 8.13Q231.57 8.81 231.57 9.76L231.57 9.76L231.57 31.00Q231.57 31.98 230.89 32.67Q230.21 33.35 229.23 33.35ZM229.82 28.31L229.82 22.32L238.61 15.18Q239.24 14.66 240.12 14.66L240.12 14.66Q241.09 14.66 241.76 15.32Q242.43 15.99 242.43 16.93L242.43 16.93Q242.43 18.05 241.59 18.75L241.59 18.75L229.82 28.31ZM240.50 33.35L240.50 33.35Q239.94 33.35 239.43 33.07Q238.93 32.79 238.61 32.34L238.61 32.34L232.69 23.73L236.26 20.92L242.39 29.68Q242.84 30.27 242.84 31.00L242.84 31.00Q242.84 31.98 242.16 32.67Q241.48 33.35 240.50 33.35ZM253.63 33.52L253.63 33.52Q251.11 33.52 249.13 32.35Q247.15 31.18 246.01 29.06Q244.88 26.95 244.88 24.07L244.88 24.07Q244.88 21.38 245.91 19.19Q246.94 17.00 248.85 15.73Q250.76 14.45 253.38 14.45L253.38 14.45Q255.34 14.45 256.90 15.18Q258.46 15.92 259.54 17.11Q260.63 18.30 261.19 19.70Q261.75 21.10 261.75 22.46L261.75 22.46Q261.75 23.80 261.10 24.56Q260.45 25.34 258.98 25.34L258.98 25.34L249.71 25.34Q249.95 26.73 250.58 27.63Q251.21 28.52 252.10 28.94Q253.00 29.36 254.08 29.36L254.08 29.36Q255.24 29.36 255.94 28.91Q256.64 28.45 257.20 27.82L257.20 27.82Q257.55 27.47 257.98 27.17Q258.42 26.88 259.12 26.88L259.12 26.88Q260.03 26.88 260.63 27.45Q261.22 28.03 261.22 29.04L261.22 29.04Q261.22 29.88 260.64 30.67Q260.06 31.46 259.03 32.11Q258 32.76 256.64 33.14Q255.27 33.52 253.63 33.52ZM249.71 22.11L249.71 22.11L257.09 22.11Q256.85 20.36 255.88 19.47Q254.92 18.58 253.42 18.58L253.42 18.58Q251.95 18.58 250.97 19.44Q249.99 20.29 249.71 22.11ZM267.91 33.35L267.91 33.35Q266.96 33.35 266.28 32.67Q265.60 31.98 265.60 31.00L265.60 31.00L265.60 16.93Q265.60 15.99 266.30 15.31Q267.00 14.63 268.01 14.63L268.01 14.63Q269.06 14.63 269.66 15.32Q270.25 16.02 270.25 16.97L270.25 16.97L270.25 18.58L269.59 18.20Q269.97 17.35 270.60 16.48Q271.23 15.60 272.14 15.03Q273.05 14.45 274.14 14.45L274.14 14.45Q275.26 14.45 275.94 15.06Q276.62 15.67 276.62 16.76L276.62 16.76Q276.62 17.70 275.90 18.39Q275.19 19.07 274.07 19.07L274.07 19.07Q272.74 19.07 271.90 19.56Q271.06 20.05 270.65 20.91Q270.25 21.77 270.25 22.92L270.25 22.92L270.25 31.00Q270.25 31.98 269.57 32.67Q268.89 33.35 267.91 33.35Z"/></g>
        
      </svg>
    